# xmcd
#
# Track frame offsets: 
#        150
#        35474
#        93501
#        147063
#        191350
#        234347
#        279119
#
# Disc length: 4234 seconds
#
# Revision: 3
# Processed by: cddbd v1.5.1PL0 Copyright (c) Steve Scherf et al.
# Submitted via: ExactAudioCopy v0.95a5
#
DISCID=50108807
DTITLE=Shibusashirazu - Dettaramen
DYEAR=1996
DGENRE=Jazz
TTITLE0=Ooh! Baby
TTITLE1=Senshi
TTITLE2=Meltdown
TTITLE3=We Don't Know What Jazz Is
TTITLE4=A Men on The Boardwalk
TTITLE5=The Shortage of Brain Cells
TTITLE6=Theme of Honda-Komuten
EXTD=YEAR: 1996
EXTT0=
EXTT1=
EXTT2=
EXTT3=
EXTT4=
EXTT5=
EXTT6=
PLAYORDER=
